<?xml version="1.0" encoding="UTF-8" standalone="no"?>
<!-- Created with Inkscape (http://www.inkscape.org/) -->

<svg
   xmlns:dc="http://purl.org/dc/elements/1.1/"
   xmlns:cc="http://creativecommons.org/ns#"
   xmlns:rdf="http://www.w3.org/1999/02/22-rdf-syntax-ns#"
   xmlns:svg="http://www.w3.org/2000/svg"
   xmlns="http://www.w3.org/2000/svg"
   xmlns:sodipodi="http://sodipodi.sourceforge.net/DTD/sodipodi-0.dtd"
   xmlns:inkscape="http://www.inkscape.org/namespaces/inkscape"
   width="793.70081"
   height="1122.5197"
   viewBox="0 0 793.70081 1122.5197"
   version="1.1"
   id="svg4110"
   inkscape:version="0.92.4 (5da689c313, 2019-01-14)"
   sodipodi:docname="rossa-sygnet-white.svg">
  <defs
     id="defs4104" />
  <sodipodi:namedview
     id="base"
     pagecolor="#ffffff"
     bordercolor="#666666"
     borderopacity="1.0"
     inkscape:pageopacity="0.0"
     inkscape:pageshadow="2"
     inkscape:zoom="0.08838835"
     inkscape:cx="-3463.7618"
     inkscape:cy="2490.4783"
     inkscape:document-units="px"
     inkscape:current-layer="layer1"
     showgrid="true"
     units="px"
     showborder="false"
     objecttolerance="10000"
     inkscape:window-width="1818"
     inkscape:window-height="1166"
     inkscape:window-x="91"
     inkscape:window-y="-11"
     inkscape:window-maximized="1"
     showguides="false">
    <inkscape:grid
       type="xygrid"
       id="grid4112" />
  </sodipodi:namedview>
  <metadata
     id="metadata4107">
    <rdf:RDF>
      <cc:Work
         rdf:about="">
        <dc:format>image/svg+xml</dc:format>
        <dc:type
           rdf:resource="http://purl.org/dc/dcmitype/StillImage" />
        <dc:title></dc:title>
      </cc:Work>
    </rdf:RDF>
  </metadata>
  <g
     inkscape:label="Layer 1"
     inkscape:groupmode="layer"
     id="layer1">
    <path
       inkscape:connector-curvature="0"
       style="fill:#ffffff;stroke-width:1.43787336"
       d="m -6159.2793,-3828.3436 a 498.6004,501.31992 0 0 0 -498.5996,501.3183 498.6004,501.31992 0 0 0 498.5996,501.3205 498.6004,501.31992 0 0 0 498.6015,-501.3205 498.6004,501.31992 0 0 0 -498.6015,-501.3183 z m -2.7774,124.4316 a 786.47093,374.83059 0 0 1 81.961,166.1875 786.47093,374.83059 0 0 1 -70.0352,153.8125 786.47093,374.83059 0 0 1 -81.9609,-166.1875 786.47093,374.83059 0 0 1 70.0351,-153.8125 z m 215.6016,17.3086 a 60,60 0 0 1 60,60 60,60 0 0 1 -60,60 60,60 0 0 1 -60,-60 60,60 0 0 1 60,-60 z m -409,5 a 60,60 0 0 1 60,60 60,60 0 0 1 -60,60 60,60 0 0 1 -60,-60 60,60 0 0 1 60,-60 z m -50.3633,190.7637 a 374.83059,786.47093 21.8963 0 1 75.0527,12.9043 374.83059,786.47093 21.8963 0 1 123.629,138.0117 60,60 0 0 1 57.6816,-43.6797 60,60 0 0 1 60,60 60,60 0 0 1 -25.1484,48.7481 374.83059,786.47093 49.990223 0 1 169.0937,74.5371 374.83059,786.47093 49.990223 0 1 45.2481,162.8379 374.83059,786.47093 49.990223 0 1 -169.6231,-74.5957 374.83059,786.47093 49.990223 0 1 -45.2422,-162.4043 60,60 0 0 1 -34.3281,10.8769 60,60 0 0 1 -60,-60 60,60 0 0 1 2.3164,-16.3066 374.83059,786.47093 21.8963 0 1 -168.8281,7.6191 374.83059,786.47093 21.8963 0 1 -123.6329,-138.0234 374.83059,786.47093 21.8963 0 1 84.5137,-20.1074 374.83059,786.47093 21.8963 0 1 9.2676,-0.418 z m 522.6426,0.418 a 786.47093,374.83059 68.1037 0 1 84.5137,20.1074 786.47093,374.83059 68.1037 0 1 -123.6328,138.0234 786.47093,374.83059 68.1037 0 1 -168.836,-7.6211 786.47093,374.83059 68.1037 0 1 123.6348,-138.0234 786.47093,374.83059 68.1037 0 1 84.3203,-12.4863 z m 63.7207,176.8183 a 60,60 0 0 1 60,60 60,60 0 0 1 -60,60 60,60 0 0 1 -60,-60 60,60 0 0 1 60,-60 z m -681,24 a 60,60 0 0 1 60,60 60,60 0 0 1 -60,60 60,60 0 0 1 -60,-60 60,60 0 0 1 60,-60 z m 315.3242,14.6914 a 786.47093,374.83059 40.009777 0 1 -45.2461,162.836 786.47093,374.83059 40.009777 0 1 -169.623,74.5957 786.47093,374.83059 40.009777 0 1 45.248,-162.8379 786.47093,374.83059 40.009777 0 1 169.6211,-74.5938 z m 30.6758,235.3086 a 60,60 0 0 1 60,60 60,60 0 0 1 -60,60.0001 60,60 0 0 1 -60,-60.0001 60,60 0 0 1 60,-60 z"
       id="path612-3-4-9-6-15-7-7" />
  </g>
</svg>
