<?xml version="1.0" encoding="UTF-8" standalone="no"?>
<!-- Created with Inkscape (http://www.inkscape.org/) -->

<svg
   xmlns:dc="http://purl.org/dc/elements/1.1/"
   xmlns:cc="http://creativecommons.org/ns#"
   xmlns:rdf="http://www.w3.org/1999/02/22-rdf-syntax-ns#"
   xmlns:svg="http://www.w3.org/2000/svg"
   xmlns="http://www.w3.org/2000/svg"
   xmlns:sodipodi="http://sodipodi.sourceforge.net/DTD/sodipodi-0.dtd"
   xmlns:inkscape="http://www.inkscape.org/namespaces/inkscape"
   width="793.70081"
   height="1122.5197"
   viewBox="0 0 793.70081 1122.5197"
   version="1.1"
   id="svg4110"
   inkscape:version="0.92.4 (5da689c313, 2019-01-14)"
   sodipodi:docname="rossa-logo-white.svg">
  <defs
     id="defs4104" />
  <sodipodi:namedview
     id="base"
     pagecolor="#ffffff"
     bordercolor="#666666"
     borderopacity="1.0"
     inkscape:pageopacity="0.0"
     inkscape:pageshadow="2"
     inkscape:zoom="0.08838835"
     inkscape:cx="-3436.7703"
     inkscape:cy="1836.402"
     inkscape:document-units="px"
     inkscape:current-layer="layer1"
     showgrid="true"
     units="px"
     showborder="false"
     objecttolerance="10000"
     inkscape:window-width="1818"
     inkscape:window-height="1166"
     inkscape:window-x="91"
     inkscape:window-y="-11"
     inkscape:window-maximized="1"
     showguides="false">
    <inkscape:grid
       type="xygrid"
       id="grid4112" />
  </sodipodi:namedview>
  <metadata
     id="metadata4107">
    <rdf:RDF>
      <cc:Work
         rdf:about="">
        <dc:format>image/svg+xml</dc:format>
        <dc:type
           rdf:resource="http://purl.org/dc/dcmitype/StillImage" />
        <dc:title></dc:title>
      </cc:Work>
    </rdf:RDF>
  </metadata>
  <g
     inkscape:label="Layer 1"
     inkscape:groupmode="layer"
     id="layer1">
    <path
       style="fill:#ffffff;stroke-width:0.63984287"
       d="m -7549.7168,-4729.1678 a 160.15338,132.74803 1.8848004 0 0 -160.127,131.123 160.15338,132.74803 1.8848004 0 0 56.4551,101.3614 85,69.59782 0 0 0 21.3067,13.0644 160.15338,132.74803 1.8848004 0 0 1.6777,0.8691 v -0.1523 a 85,69.59782 0 0 0 37.8574,7.3164 85,69.59782 0 0 0 85,-69.5976 85,69.59782 0 0 0 -65.6914,-67.6172 51.723572,36.814679 0 0 1 -51.1133,-36.793 51.723572,36.814679 0 0 1 22.4121,-30.2832 47.5,36.845905 0 0 1 0.2793,-0.1699 88.035713,72.448995 0 0 1 0.3145,-0.1309 51.723572,36.814679 0 0 1 5.4961,-2.3027 88.035713,72.448995 0 0 1 37.7676,-7.1621 88.035713,72.448995 0 0 1 87.6777,66.3984 v 115.4922 27.3965 611.2656 684.4746 a 66.301012,84.696305 1.4382533 0 1 -66.9023,80.0176 66.301012,84.696305 1.4382533 0 1 -0.4668,-0.029 84.696305,66.301012 88.561747 0 1 -0.4649,0.029 84.696305,66.301012 88.561747 0 1 -65.5918,-68.5137 h -1.3105 -25.2637 v 90.0664 h 25.2637 134.7363 320 v -753.2929 h 249.0254 a 159.86982,132.95427 1.9192342 0 1 150.9746,131.7832 v 3.3183 618.1914 h 0.4863 a 387.68594,308.51366 0 0 0 387.2071,300.8926 387.68594,308.51366 0 0 0 251.4628,-74.4141 160.15338,132.74803 1.8848004 0 0 72.4493,-110.2265 160.15338,132.74803 1.8848004 0 0 -56.4551,-101.3614 85,69.59782 0 0 0 -21.3066,-13.0644 160.15338,132.74803 1.8848004 0 0 -1.6778,-0.8672 v 0.1504 a 85,69.59782 0 0 0 -37.8574,-7.3145 85,69.59782 0 0 0 -85,69.5977 85,69.59782 0 0 0 65.6914,67.6152 51.723572,36.814679 0 0 1 49.959,29.3008 69.999985,44.9442 0 0 1 5.041,15.7324 l 0.018,1.0078 a 69.999985,44.9442 0 0 1 -40.0176,40.5626 v 0.1601 a 200,180.13554 0 0 1 -52.8242,10.6895 240.1664,176.19042 0 0 1 -217.0528,-167.0508 h -0.123 v -2.0508 -9.1836 -47.8301 -2.3457 -296.5879 -350.582 a 160.15338,132.74803 1.8848004 0 0 0.3145,-5.2148 160.15338,132.74803 1.8848004 0 0 -155.3145,-134.2286 v -0.3164 a 160.15338,132.74803 1.8848004 0 0 155.3848,-131.0312 160.15338,132.74803 1.8848004 0 0 -0.3848,-9.0293 v -510 h -0.1367 a 160.15338,132.74803 1.8848004 0 0 0.043,-0.6992 160.15338,132.74803 1.8848004 0 0 -160.1269,-134.418 160.15338,132.74803 1.8848004 0 0 -0.8398,0.016 h -558.9395 -256.7793 a 160.15338,132.74803 1.8848004 0 0 -142.5332,-74.0312 z m 920.2793,127.2539 a 142.54698,73.68827 0.50169159 0 1 59.1211,60.0449 142.54698,73.68827 0.50169159 0 1 -0.1309,1.3652 h 0.043 v 524.0293 h -0.043 a 73.68827,142.54698 89.498309 0 1 0.1309,1.3653 73.68827,142.54698 89.498309 0 1 -59.1211,60.0449 v -0.9668 a 207.24766,396.90199 89.489457 0 0 19.0332,-60.4434 v -524.0293 a 396.90199,207.24766 0.51054339 0 0 -19.0332,-60.4433 z m -700.9668,12.2812 h 40 v 720.543 720.541 h -40 v -720.541 z m 180,0 h 248.2891 a 159.86982,132.95427 1.9192342 0 1 151.0312,134.17 159.86982,132.95427 1.9192342 0 1 -0.057,0.9316 h 0.7363 v 28.6582 399.8105 a 130.84971,162.44114 88.367774 0 1 -163.8613,123.6641 130.84971,162.44114 88.367774 0 1 -1.1387,-0.047 v 0.6035 h -235 z m 3763.1855,239.1856 a 387.68594,376.78854 0 0 0 -251.4628,90.8828 162.57086,159.71466 67.779256 0 0 -72.4493,134.6191 162.57086,159.71466 67.779256 0 0 56.4551,123.793 85,85 0 0 0 21.3067,15.9551 162.57086,159.71466 67.779256 0 0 1.6777,1.0605 v -0.1855 a 85,85 0 0 0 37.8574,8.9355 85,85 0 0 0 85,-85 85,85 0 0 0 -65.6914,-82.5801 51.723572,44.961864 0 0 1 -49.959,-35.7851 69.999985,54.890469 0 0 1 -5.041,-19.2149 l -0.018,-1.2285 a 69.999985,54.890469 0 0 1 40.0176,-49.541 v -0.1953 a 200,220 0 0 1 52.8242,-13.0547 240.1664,215.18182 0 0 1 217.0528,204.0195 h 0.123 v 2.504 a 240.1664,215.18182 0 0 1 0.2578,5.2695 240.1664,215.18182 0 0 1 -0.2578,5.9472 v 58.4141 a 190,191.75879 0 0 1 0.4043,2.8652 h -0.4043 v 120 h -348.9394 a 159.71466,162.57086 22.220744 0 0 -0.8399,-0.019 159.71466,162.57086 22.220744 0 0 -160.1269,164.1641 159.71466,162.57086 22.220744 0 0 0.043,0.8554 h -0.1367 v 215 h 0.088 v 173.334 h 0.1367 a 162.57086,159.71466 67.779256 0 0 -0.043,0.8555 162.57086,159.71466 67.779256 0 0 160.127,164.1641 162.57086,159.71466 67.779256 0 0 0.8398,-0.02 h 410.7461 a 387.68594,376.78854 0 0 0 326.2559,174.6543 387.68594,376.78854 0 0 0 251.4629,-90.8828 162.57086,159.71466 67.779256 0 0 72.4492,-134.6191 162.57086,159.71466 67.779256 0 0 -56.4551,-123.793 85,85 0 0 0 -21.3066,-15.9551 162.57086,159.71466 67.779256 0 0 -1.6777,-1.0605 v 0.1855 a 85,85 0 0 0 -37.8575,-8.9355 85,85 0 0 0 -85,85 85,85 0 0 0 65.6914,82.5801 51.723572,44.961864 0 0 1 49.959,35.7851 69.999985,54.890469 0 0 1 5.041,19.2149 l 0.018,1.2285 a 69.999985,54.890469 0 0 1 -40.0176,49.541 v 0.1953 a 200,220 0 0 1 -52.8242,13.0547 240.1664,215.18182 0 0 1 -217.0527,-204.0195 h -0.1231 v -2.5039 a 240.1664,215.18182 0 0 1 -0.2578,-5.2696 240.1664,215.18182 0 0 1 0.2578,-5.9472 v -58.4141 a 190,191.75879 0 0 1 -0.4043,-2.8652 h 0.4043 v -200 h -0.457 v -445.5079 h -0.4863 a 387.68594,376.78854 0 0 0 -387.2071,-367.4804 z m 158.1504,152.9883 a 350.37637,336.40842 80.811757 0 1 15.0489,17.6386 426.89387,411.03998 0 0 1 74.7324,216.5723 v 14.8906 a 350.37637,336.40842 80.811757 0 1 -0.2266,5.3906 h -0.012 v 560 h 0.457 v 5.5079 a 711.47688,714.93799 0 0 0 49.543,254.4921 350.37637,336.40842 80.811757 0 1 -15.0488,-17.6386 426.89387,411.03998 0 0 1 -74.7324,-216.5723 v -14.8906 a 350.37637,336.40842 80.811757 0 1 0.2265,-5.3906 h 0.012 v -160 h -0.457 v -405.5079 a 711.47688,714.93799 0 0 0 -49.543,-254.4921 z m -242.9082,39.4921 a 88.035713,88.482147 0 0 1 0.2852,2.2442 v -2.2442 z m -2383.2519,4.5938 a 498.6004,501.31992 0 0 0 -498.5996,501.3184 498.6004,501.31992 0 0 0 498.5996,501.3203 498.6004,501.31992 0 0 0 498.6015,-501.3203 498.6004,501.31992 0 0 0 -498.6015,-501.3184 z m 899.9336,25.916 a 340.32625,357.55695 89.185453 0 0 -6.8379,0.2285 371.33273,378.12953 87.708585 0 0 -12.1856,0.627 340.32625,357.55695 89.185453 0 0 -330.1406,339.1738 340.32625,357.55695 89.185453 0 0 9.0156,74.0098 340.32625,357.55695 89.185453 0 0 31.4356,54.459 l 44.541,51.0664 a 340.32625,357.55695 89.185453 0 0 109.9023,69.9004 156.88772,174.4536 89.642406 0 1 143.4395,107.2031 82.230175,86.517638 89.20963 0 1 12.5664,42.5351 82.230175,86.517638 89.20963 0 1 -6.4414,30.7735 156.88772,174.4536 89.642406 0 1 -172.1973,131.834 156.88772,174.4536 89.642406 0 1 -93.6621,-24.752 69.999985,54.890469 0 0 1 -24.9472,-41.8301 l 0.017,-1.2285 a 69.999985,54.890469 0 0 1 5.041,-19.2148 51.723572,44.961864 0 0 1 49.959,-35.7852 85,85 0 0 0 65.6914,-82.5801 85,85 0 0 0 -85,-85 85,85 0 0 0 -8.9199,0.4981 156.88772,174.4536 89.642406 0 1 1,-0.5645 83.770593,87.176014 88.980474 0 0 -34.3965,8.5899 v -0.1836 a 159.54898,164.49177 76.505807 0 0 -1.7207,1.0469 83.770593,87.176014 88.980474 0 0 -21.875,15.7226 159.54898,164.49177 76.505807 0 0 -58.08,122.0059 159.54898,164.49177 76.505807 0 0 74.1074,132.6738 371.34093,397.60851 89.422693 0 0 255.5625,89.5547 340.32814,375.98235 89.616519 0 0 7.1914,-0.2285 371.34093,397.60851 89.422693 0 0 12.8125,-0.625 340.32814,375.98235 89.616519 0 0 347.1308,-339.1758 340.32814,375.98235 89.616519 0 0 -9.4863,-74.0078 340.32814,375.98235 89.616519 0 0 -33.0605,-54.461 l -46.8399,-51.0644 a 340.32814,375.98235 89.616519 0 0 -135.3554,-77.1426 159.06168,161.55812 87.32315 0 1 -53.3711,-13.8867 340.32814,375.98235 89.616519 0 0 -3.5274,-0.7637 l -1.3652,-1.5625 a 159.06168,161.55812 87.32315 0 1 -89.3164,-142.1758 159.06168,161.55812 87.32315 0 1 161.7871,-159.0683 159.06168,161.55812 87.32315 0 1 103.0215,36.8789 v 0.8887 a 66.569193,54.890469 0 0 1 18.9394,38.1914 l -0.016,1.2285 a 66.569193,54.890469 0 0 1 -4.7949,19.2148 49.188531,44.961864 0 0 1 -47.5098,35.7852 80.834037,85 0 0 0 -62.4726,82.5801 80.834037,85 0 0 0 69.2324,84.0371 159.06168,161.55812 87.32315 0 1 -2.0821,1.1875 82.897964,83.776089 4.0679298 0 0 22.084,3.0332 82.897964,83.776089 4.0679298 0 0 36.9356,-8.8067 v 0.1836 a 155.86774,160.12433 15.554034 0 0 1.6386,-1.0449 82.897964,83.776089 4.0679298 0 0 20.8028,-15.7246 155.86774,160.12433 15.554034 0 0 55.2441,-122.0039 155.86774,160.12433 15.554034 0 0 -70.4668,-132.6738 371.33273,378.12953 87.708585 0 0 -243.0312,-89.5567 z m 730.6054,1.2949 a 340.32625,357.55695 89.185453 0 0 -6.8378,0.2286 371.33273,378.12953 87.708585 0 0 -12.1856,0.6269 340.32625,357.55695 89.185453 0 0 -330.1406,339.1738 340.32625,357.55695 89.185453 0 0 9.0156,74.0098 340.32625,357.55695 89.185453 0 0 31.4356,54.459 l 44.541,51.0664 a 340.32625,357.55695 89.185453 0 0 109.9023,69.9004 156.88772,174.4536 89.642406 0 1 143.4395,107.2031 82.230175,86.517638 89.20963 0 1 12.5664,42.5352 82.230175,86.517638 89.20963 0 1 -6.4414,30.7734 156.88772,174.4536 89.642406 0 1 -172.1973,131.834 156.88772,174.4536 89.642406 0 1 -93.6621,-24.752 69.999985,54.890469 0 0 1 -24.9473,-41.83 l 0.018,-1.2286 a 69.999985,54.890469 0 0 1 5.041,-19.2148 51.723572,44.961864 0 0 1 49.959,-35.7852 85,85 0 0 0 65.6914,-82.58 85,85 0 0 0 -85,-85 85,85 0 0 0 -8.9199,0.498 156.88772,174.4536 89.642406 0 1 1,-0.5644 83.770593,87.176014 88.980474 0 0 -34.3965,8.5898 v -0.1836 a 159.54898,164.49177 76.505807 0 0 -1.7207,1.0469 83.770593,87.176014 88.980474 0 0 -21.875,15.7226 159.54898,164.49177 76.505807 0 0 -58.0801,122.0059 159.54898,164.49177 76.505807 0 0 74.1074,132.6738 371.34093,397.60851 89.422693 0 0 255.5625,89.5547 340.32814,375.98235 89.616519 0 0 7.1914,-0.2285 371.34093,397.60851 89.422693 0 0 12.8126,-0.625 340.32814,375.98235 89.616519 0 0 347.1308,-339.1758 340.32814,375.98235 89.616519 0 0 -9.4863,-74.0078 340.32814,375.98235 89.616519 0 0 -33.0606,-54.4609 l -46.8398,-51.0645 a 340.32814,375.98235 89.616519 0 0 -135.3555,-77.1426 159.06168,161.55812 87.32315 0 1 -53.3711,-13.8867 340.32814,375.98235 89.616519 0 0 -3.5273,-0.7637 l -1.3652,-1.5625 a 159.06168,161.55812 87.32315 0 1 -89.3165,-142.1757 159.06168,161.55812 87.32315 0 1 161.7872,-159.0684 159.06168,161.55812 87.32315 0 1 103.0214,36.8789 v 0.8887 a 66.569193,54.890469 0 0 1 18.9395,38.1914 l -0.016,1.2285 a 66.569193,54.890469 0 0 1 -4.795,19.2148 49.188531,44.961864 0 0 1 -47.5097,35.7852 80.834037,85 0 0 0 -62.4727,82.5801 80.834037,85 0 0 0 69.2324,84.0371 159.06168,161.55812 87.32315 0 1 -2.082,1.1875 82.897964,83.776089 4.0679298 0 0 22.084,3.0332 82.897964,83.776089 4.0679298 0 0 36.9355,-8.8067 v 0.1836 a 155.86774,160.12433 15.554034 0 0 1.6387,-1.0449 82.897964,83.776089 4.0679298 0 0 20.8028,-15.7246 155.86774,160.12433 15.554034 0 0 55.2441,-122.0039 155.86774,160.12433 15.554034 0 0 -70.4668,-132.6738 371.33273,378.12953 87.708585 0 0 -243.0313,-89.5567 z m -1633.3164,97.2207 a 786.47093,374.83059 0 0 1 81.961,166.1875 786.47093,374.83059 0 0 1 -70.0352,153.8125 786.47093,374.83059 0 0 1 -81.9609,-166.1875 786.47093,374.83059 0 0 1 70.0351,-153.8125 z m 215.6016,17.3086 a 60,60 0 0 1 60,60 60,60 0 0 1 -60,60 60,60 0 0 1 -60,-60 60,60 0 0 1 60,-60 z m -409,5 a 60,60 0 0 1 60,60 60,60 0 0 1 -60,60 60,60 0 0 1 -60,-60 60,60 0 0 1 60,-60 z m 939.5469,29.9395 a 693.89355,704.63208 2.7997083 0 0 -0.7637,2.3105 l -0.6055,-0.6933 a 328.11135,345.30791 8.1706427 0 1 1.3692,-1.6172 z m 730.6054,1.2949 a 693.89355,704.63208 2.7997083 0 0 -0.7636,2.3106 l -0.6055,-0.6934 a 328.11135,345.30791 8.1706427 0 1 1.3691,-1.6172 z m -2248.1855,159.5293 a 142.54698,73.68827 0.50169159 0 1 59.1211,60.0469 142.54698,73.68827 0.50169159 0 1 -0.1309,1.3633 h 0.043 v 638.6621 a 711.47688,585.38972 0 0 0 30,160.2187 v 27.9649 a 426.89387,336.55867 0 0 1 -70.2383,-171.5762 v -12.1934 a 336.84441,286.5161 2.2635563 0 1 0.2266,-4.414 h 0.012 v -638.6621 a 396.90199,207.24766 0.51054339 0 0 -19.0332,-60.4414 z m 527.6699,0 a 374.83059,786.47093 21.8963 0 1 75.0528,12.9043 374.83059,786.47093 21.8963 0 1 123.6289,138.0117 60,60 0 0 1 57.6816,-43.6797 60,60 0 0 1 60,60 60,60 0 0 1 -25.1484,48.7481 374.83059,786.47093 49.990223 0 1 169.0937,74.5371 374.83059,786.47093 49.990223 0 1 45.2481,162.8379 374.83059,786.47093 49.990223 0 1 -169.6231,-74.5957 374.83059,786.47093 49.990223 0 1 -45.2422,-162.4043 60,60 0 0 1 -34.3281,10.8769 60,60 0 0 1 -60,-60 60,60 0 0 1 2.3164,-16.3066 374.83059,786.47093 21.8963 0 1 -168.8281,7.6191 374.83059,786.47093 21.8963 0 1 -123.6328,-138.0234 374.83059,786.47093 21.8963 0 1 84.5136,-20.1074 374.83059,786.47093 21.8963 0 1 9.2676,-0.418 z m 513.375,0 a 786.47093,374.83059 68.1037 0 1 9.2676,0.418 786.47093,374.83059 68.1037 0 1 84.5137,20.1074 786.47093,374.83059 68.1037 0 1 -123.6328,138.0234 786.47093,374.83059 68.1037 0 1 -168.836,-7.6211 786.47093,374.83059 68.1037 0 1 123.6348,-138.0234 786.47093,374.83059 68.1037 0 1 75.0527,-12.9043 z m 1957.9004,17.9023 v 1.1817 a 253.10605,396.91148 89.235652 0 0 -19.0332,73.8183 v 240 h 0.088 v 198.334 a 396.91148,253.10605 0.76434849 0 0 19.0332,73.8184 v 1.1816 a 142.55025,89.993611 0.74651742 0 1 -59.1211,-73.334 142.55025,89.993611 0.74651742 0 1 0.1309,-1.666 h -0.043 v -240 h -0.088 v -198.334 h 0.043 a 89.993611,142.55025 89.253483 0 1 -0.1309,-1.666 89.993611,142.55025 89.253483 0 1 59.1211,-73.334 z m -1512.459,2.1778 0.9492,0.7031 a 253.10605,396.91148 35.812879 0 0 47.7461,59.1016 l 241.961,176.373 -0.1563,0.2129 a 89.993611,142.55025 35.83071 0 1 22.0469,89.7656 l -0.9473,-0.7031 a 253.10605,396.91148 35.812879 0 0 -47.9394,-59.2754 l 0.086,-0.1152 -238.8789,-174.127 a 89.993611,142.55025 35.83071 0 1 -1.207,-0.7578 89.993611,142.55025 35.83071 0 1 -23.6602,-91.1777 z m 730.6055,1.2949 0.9492,0.7031 a 253.10605,396.91148 35.812879 0 0 47.7461,59.1016 l 241.9609,176.373 -0.1562,0.2129 a 89.993611,142.55025 35.83071 0 1 22.0469,89.7657 l -0.9473,-0.7032 a 253.10605,396.91148 35.812879 0 0 -47.9394,-59.2754 l 0.086,-0.1152 -238.8789,-174.1269 a 89.993611,142.55025 35.83071 0 1 -1.207,-0.7579 89.993611,142.55025 35.83071 0 1 -23.6602,-91.1777 z m 1054.5312,11.5273 h 38.2891 v 400 h 0.457 v 45.5079 h 0.4864 a 387.68594,376.78854 0 0 0 20.9199,112.8261 h -60.0645 a 162.75744,159.49652 71.089217 0 1 -151.0312,-163.8613 162.75744,159.49652 71.089217 0 1 0.057,-1.1387 h -0.7363 v -35 -100 h -0.088 v -58.334 -35 h 0.7363 a 159.49652,162.75744 18.910783 0 1 -0.057,-1.1386 159.49652,162.75744 18.910783 0 1 151.0312,-163.8614 z m -3391.8535,32.6016 h 0.062 a 160.15338,132.74803 1.8848004 0 0 -0.062,0.4649 z m 1234.2637,111.7324 a 60,60 0 0 1 60,60 60,60 0 0 1 -60,60 60,60 0 0 1 -60,-60 60,60 0 0 1 60,-60 z m -681,24 a 60,60 0 0 1 60,60 60,60 0 0 1 -60,60 60,60 0 0 1 -60,-60 60,60 0 0 1 60,-60 z m 315.3242,14.6914 a 786.47093,374.83059 40.009777 0 1 -45.2461,162.836 786.47093,374.83059 40.009777 0 1 -169.623,74.5957 786.47093,374.83059 40.009777 0 1 45.248,-162.8379 786.47093,374.83059 40.009777 0 1 169.6211,-74.5938 z m 30.6758,235.3086 a 60,60 0 0 1 60,60 60,60 0 0 1 -60,60 60,60 0 0 1 -60,-60 60,60 0 0 1 60,-60 z m 3003.502,199.9297 v 2.2442 h 0.2851 a 88.035713,88.482147 0 0 1 -0.2851,-2.2442 z m -3431.336,223.1113 v 1.8379 h 0.2852 a 88.035713,72.448995 0 0 1 -0.2852,-1.8379 z"
       id="rect4118-1"
       inkscape:connector-curvature="0"
       inkscape:export-xdpi="11.288848"
       inkscape:export-ydpi="11.288848" />
  </g>
</svg>
